<svg xmlns="http://www.w3.org/2000/svg" width="24" height="24" viewBox="0 0 24 24">
  <g id="_1" data-name="1" transform="translate(-54.094 -48.02)">
    <path id="Path_628" data-name="Path 628" d="M71.682,72.02a11.857,11.857,0,0,1-2.77-.349,19.857,19.857,0,0,1-9.074-5.394A19.905,19.905,0,0,1,54.445,57.2c-.8-3.289-.228-6.1,1.6-7.926l.521-.521a2.519,2.519,0,0,1,3.559,0l2.991,2.991a2.518,2.518,0,0,1,0,3.559l-1.767,1.766a21.832,21.832,0,0,0,7.7,7.7L70.807,63a2.516,2.516,0,0,1,3.559,0l2.991,2.991a2.517,2.517,0,0,1,0,3.558l-.521.521A7.065,7.065,0,0,1,71.682,72.02ZM58.34,49.809a.716.716,0,0,0-.513.213l-.521.521c-1.365,1.365-1.764,3.582-1.123,6.238a18.071,18.071,0,0,0,4.92,8.23,18.1,18.1,0,0,0,8.23,4.919c2.656.641,4.872.242,6.237-1.123l.521-.521a.726.726,0,0,0,0-1.026L73.1,64.269a.726.726,0,0,0-1.026,0l-2.239,2.239a.9.9,0,0,1-1.045.162,23.281,23.281,0,0,1-9.348-9.347.9.9,0,0,1,.162-1.045l2.24-2.239a.726.726,0,0,0,0-1.026l-2.991-2.991A.721.721,0,0,0,58.34,49.809Z" transform="translate(0)" fill="#fff"/>
    <path id="Path_629" data-name="Path 629" d="M243.216,134.082a.9.9,0,0,1-.9-.9,5.932,5.932,0,0,0-5.925-5.925.9.9,0,0,1,0-1.791,7.725,7.725,0,0,1,7.716,7.716A.9.9,0,0,1,243.216,134.082Z" transform="translate(-170.577 -72.827)" fill="#fff"/>
    <path id="Path_630" data-name="Path 630" d="M247,74.466a.9.9,0,0,1-.9-.9,9.722,9.722,0,0,0-9.71-9.71.9.9,0,1,1,0-1.791,11.514,11.514,0,0,1,11.5,11.5A.9.9,0,0,1,247,74.466Z" transform="translate(-170.577 -13.211)" fill="#fff"/>
  </g>
</svg>
