<svg xmlns="http://www.w3.org/2000/svg" width="34.359" height="25.769" viewBox="0 0 34.359 25.769">
  <g id="creditgiven" transform="translate(0 -3)">
    <g id="card" transform="translate(0 3)">
      <path id="Path_585" data-name="Path 585" d="M28.632,3H5.726A5.743,5.743,0,0,0,0,8.726v1.432A1.353,1.353,0,0,0,1.432,11.59h31.5a1.353,1.353,0,0,0,1.432-1.432V8.726A5.743,5.743,0,0,0,28.632,3Z" transform="translate(0 -3)" fill="#fff"/>
      <path id="Path_586" data-name="Path 586" d="M32.927,11H1.432A1.353,1.353,0,0,0,0,12.432V19.59a5.743,5.743,0,0,0,5.726,5.726H28.632a5.743,5.743,0,0,0,5.726-5.726V12.432A1.353,1.353,0,0,0,32.927,11ZM15.748,21.021H7.158a1.432,1.432,0,1,1,0-2.863h8.59a1.432,1.432,0,0,1,0,2.863ZM27.2,16.726H24.337a1.353,1.353,0,0,1-1.432-1.432,1.353,1.353,0,0,1,1.432-1.432H27.2a1.353,1.353,0,0,1,1.432,1.432A1.353,1.353,0,0,1,27.2,16.726Z" transform="translate(0 0.453)" fill="#fff"/>
    </g>
  </g>
</svg>
