<svg xmlns="http://www.w3.org/2000/svg" width="25.572" height="18.277" viewBox="0 0 25.572 18.277">
  <g id="_1904660_email_envelope_letter_mail_message_icon" data-name="1904660_email_envelope_letter_mail_message_icon" transform="translate(0.5 -18.5)">
    <path id="Path_624" data-name="Path 624" d="M31.038,30.711a.576.576,0,0,0-.806-.117l-9.289,6.934a.192.192,0,0,1-.23,0l-9.107-6.965a.576.576,0,0,0-.7.916l7.16,5.477-7.082,5.337a.58.58,0,1,0,.693.929l7.339-5.54.994.768a1.344,1.344,0,0,0,1.618.012l1.044-.779,7.425,5.54a.576.576,0,1,0,.689-.923l-7.153-5.344,7.285-5.442A.576.576,0,0,0,31.038,30.711Z" transform="translate(-8.63 -9.248)" fill="#fff" stroke="#fff" stroke-width="1"/>
    <path id="Path_625" data-name="Path 625" d="M21.693,19H2.88A2.88,2.88,0,0,0,0,21.88V33.4a2.88,2.88,0,0,0,2.88,2.88H21.693a2.88,2.88,0,0,0,2.88-2.88V21.88A2.88,2.88,0,0,0,21.693,19ZM23.42,33.4a1.728,1.728,0,0,1-1.728,1.728H2.88A1.728,1.728,0,0,1,1.152,33.4V21.88A1.728,1.728,0,0,1,2.88,20.152H21.693A1.728,1.728,0,0,1,23.42,21.88Z" transform="translate(0 0)" fill="#fff" stroke="#fff" stroke-width="1"/>
  </g>
</svg>
