<svg xmlns="http://www.w3.org/2000/svg" width="22.145" height="14.236" viewBox="0 0 22.145 14.236">
  <g id="_392505_eye_preview_see_seen_view_icon" data-name="392505_eye_preview_see_seen_view_icon" transform="translate(-2 -7)">
    <g id="Group_3852" data-name="Group 3852" transform="translate(2 7)">
      <g id="Group_3850" data-name="Group 3850">
        <path id="Path_661" data-name="Path 661" d="M13.073,21.236a12.249,12.249,0,0,1-8.99-4.024.791.791,0,0,1,1.156-1.08,10.681,10.681,0,0,0,7.834,3.522,11.022,11.022,0,0,0,9.364-5.536,11.021,11.021,0,0,0-9.364-5.536,11.089,11.089,0,0,0-9.594,5.926.791.791,0,1,1-1.376-.78A12.65,12.65,0,0,1,13.073,7a12.649,12.649,0,0,1,10.97,6.728.791.791,0,0,1,0,.779A12.65,12.65,0,0,1,13.073,21.236Z" transform="translate(-2 -7)" fill="#3e5cbc"/>
      </g>
      <g id="Group_3851" data-name="Group 3851" transform="translate(7.118 3.164)">
        <path id="Path_662" data-name="Path 662" d="M14.955,18.909a3.955,3.955,0,1,1,3.955-3.955A3.959,3.959,0,0,1,14.955,18.909Zm0-6.327a2.373,2.373,0,1,0,2.373,2.373A2.376,2.376,0,0,0,14.955,12.582Z" transform="translate(-11 -11)" fill="#3e5cbc"/>
      </g>
    </g>
  </g>
</svg>
