<svg xmlns="http://www.w3.org/2000/svg" width="32.576" height="28.917" viewBox="0 0 32.576 28.917">
  <g id="_1737374_comment_comments_description_note_notice_icon" data-name="1737374_comment_comments_description_note_notice_icon" transform="translate(-60.322 -85.788)">
    <path id="Path_666" data-name="Path 666" d="M163.349,151.926H175.9a.628.628,0,1,0,0-1.255H163.349a.628.628,0,0,0,0,1.255Z" transform="translate(-93.657 -59.175)" fill="#fff" stroke="#fff" stroke-width="1"/>
    <path id="Path_667" data-name="Path 667" d="M207.366,203.362H195.609a.628.628,0,0,0,0,1.255h11.757a.628.628,0,0,0,0-1.255Z" transform="translate(-123.307 -107.604)" fill="#fff" stroke="#fff" stroke-width="1"/>
    <path id="Path_668" data-name="Path 668" d="M174.368,256.052H163.349a.627.627,0,1,0,0,1.254h11.019a.627.627,0,0,0,0-1.254Z" transform="translate(-93.657 -156.032)" fill="#fff" stroke="#fff" stroke-width="1"/>
    <path id="Path_669" data-name="Path 669" d="M88,86.288H65.223a4.25,4.25,0,0,0-4.4,4.069v12.524a4.25,4.25,0,0,0,4.4,4.069H78.653l9.692,6.794v-6.806a4.22,4.22,0,0,0,4.053-4.057V90.357A4.25,4.25,0,0,0,88,86.288Zm2.518,16.594A2.373,2.373,0,0,1,88,105.068H86.462v5.058l-7.215-5.058H65.223a2.373,2.373,0,0,1-2.518-2.186V90.357a2.373,2.373,0,0,1,2.518-2.187H88a2.373,2.373,0,0,1,2.518,2.187Z" transform="translate(0)" fill="#fff" stroke="#fff" stroke-width="1"/>
  </g>
</svg>
