<svg xmlns="http://www.w3.org/2000/svg" width="29.513" height="26.83" viewBox="0 0 29.513 26.83">
  <g id="icons" transform="translate(-1 -2)">
    <g id="dashboard" transform="translate(1 2)">
      <path id="Path_581" data-name="Path 581" d="M6.366,18H3.683a2.683,2.683,0,1,0,0,5.366H6.366a2.683,2.683,0,0,0,0-5.366Z" transform="translate(-1 3.464)" fill="#fff"/>
      <path id="Path_582" data-name="Path 582" d="M14.366,16H11.683A2.691,2.691,0,0,0,9,18.683v2.683a2.691,2.691,0,0,0,2.683,2.683h2.683a2.691,2.691,0,0,0,2.683-2.683V18.683A2.691,2.691,0,0,0,14.366,16Z" transform="translate(1.732 2.781)" fill="#fff"/>
      <path id="Path_583" data-name="Path 583" d="M22.366,12H19.683A2.691,2.691,0,0,0,17,14.683v8.049a2.691,2.691,0,0,0,2.683,2.683h2.683a2.691,2.691,0,0,0,2.683-2.683V14.683A2.691,2.691,0,0,0,22.366,12Z" transform="translate(4.464 1.415)" fill="#fff"/>
      <path id="Path_584" data-name="Path 584" d="M29.172,2H20.318a1.342,1.342,0,0,0-.939,2.281l2.549,2.549c-4.964,5.634-12.074,9.927-19.586,9.927a1.342,1.342,0,1,0,0,2.683c8.988,0,17.305-2.549,23.342-8.854L28.1,13a1.342,1.342,0,0,0,2.281-.939V3.342A1.11,1.11,0,0,0,29.172,2Z" transform="translate(-1 -2)" fill="#fff"/>
    </g>
  </g>
</svg>
