<svg id="_9022657_note_duotone_icon" data-name="9022657_note_duotone_icon" xmlns="http://www.w3.org/2000/svg" width="25" height="25" viewBox="0 0 25 25">
  <rect id="Rectangle_1650" data-name="Rectangle 1650" width="25" height="25" fill="none"/>
  <path id="Path_616" data-name="Path 616" d="M165.469,160H160v5.469Z" transform="translate(-144.375 -144.375)" fill="#fff" opacity="0.2"/>
  <line id="Line_12" data-name="Line 12" x2="6" transform="translate(10 10)" fill="none" stroke="#fff" stroke-linecap="round" stroke-linejoin="round" stroke-width="2"/>
  <line id="Line_13" data-name="Line 13" x2="6" transform="translate(10 13)" fill="none" stroke="#fff" stroke-linecap="round" stroke-linejoin="round" stroke-width="2"/>
  <line id="Line_14" data-name="Line 14" x2="3" transform="translate(10 16)" fill="none" stroke="#fff" stroke-linecap="round" stroke-linejoin="round" stroke-width="2"/>
  <path id="Path_617" data-name="Path 617" d="M51.4,57.187H40.781A.781.781,0,0,1,40,56.406V40.781A.781.781,0,0,1,40.781,40H56.406a.781.781,0,0,1,.781.781V51.4a.771.771,0,0,1-.225.547l-5.02,5.02a.771.771,0,0,1-.547.225Z" transform="translate(-36.094 -36.094)" fill="none" stroke="#fff" stroke-linecap="round" stroke-linejoin="round" stroke-width="2"/>
  <path id="Path_618" data-name="Path 618" d="M165.4,160H160v5.4" transform="translate(-144.375 -144.375)" fill="none" stroke="#fff" stroke-linecap="round" stroke-linejoin="round" stroke-width="2"/>
</svg>
