<svg xmlns="http://www.w3.org/2000/svg" width="30.266" height="26" viewBox="0 0 30.266 26">
  <path id="_7787524_cart_shopping_shop_ecommerce_buy_icon" data-name="7787524_cart_shopping_shop_ecommerce_buy_icon" d="M40.575,28.694a3.106,3.106,0,0,0-1.193-.17H23.866a7.569,7.569,0,0,0-1.961.085,1.644,1.644,0,0,0-1.279,1.62,1.7,1.7,0,0,0,1.7,1.7h15.43L36.4,39.094a1.742,1.742,0,0,1-1.7,1.364H21.906a1.817,1.817,0,0,1-1.7-1.364L17.473,26.478a3.461,3.461,0,0,0-3.325-2.728H12.955a1.7,1.7,0,0,0,0,3.41h1.193l2.728,12.616a5.042,5.042,0,0,0,5.03,4.007H34.693a5.085,5.085,0,0,0,4.774-3.325A38.158,38.158,0,0,0,40.4,36.2c.256-1.449.6-2.9.852-4.262a3.028,3.028,0,0,0,.17-.852,2.9,2.9,0,0,0,.085-.852A1.532,1.532,0,0,0,40.575,28.694Zm-22.5,18.5a2.557,2.557,0,0,0,5.115,0h0a2.557,2.557,0,1,0-5.115,0Zm15.344,0a2.557,2.557,0,1,0,2.557-2.557,2.557,2.557,0,0,0-2.557,2.557Z" transform="translate(-11.25 -23.75)" fill="#fff"/>
</svg>
