<svg xmlns="http://www.w3.org/2000/svg" width="37" height="37" viewBox="0 0 37 37">
  <g id="Group_4082" data-name="Group 4082" transform="translate(-1308 -246)">
    <circle id="Ellipse_81" data-name="Ellipse 81" cx="18.5" cy="18.5" r="18.5" transform="translate(1308 246)" fill="#f9f9f9"/>
    <path id="Icon_metro-gbp" data-name="Icon metro-gbp" d="M23.717,18.784v5.229a.439.439,0,0,1-.456.456H9.639a.439.439,0,0,1-.456-.456V21.876a.462.462,0,0,1,.456-.456h1.382V15.963H9.668a.432.432,0,0,1-.328-.135.45.45,0,0,1-.128-.321V13.64a.439.439,0,0,1,.456-.456h1.354V10.007a5.166,5.166,0,0,1,1.76-4.018,6.45,6.45,0,0,1,4.481-1.582,7.271,7.271,0,0,1,4.773,1.781.421.421,0,0,1,.142.292.44.44,0,0,1-.1.321L20.611,8.61a.437.437,0,0,1-.313.171.382.382,0,0,1-.328-.1,3.131,3.131,0,0,0-.37-.271,5.188,5.188,0,0,0-.983-.456A3.764,3.764,0,0,0,17.291,7.7a2.8,2.8,0,0,0-1.952.67,2.251,2.251,0,0,0-.741,1.753v3.064h4.346a.45.45,0,0,1,.321.128.432.432,0,0,1,.135.328v1.867a.462.462,0,0,1-.456.456H14.6v5.4h5.9V18.784a.45.45,0,0,1,.128-.321.432.432,0,0,1,.328-.135h2.308a.432.432,0,0,1,.328.135.451.451,0,0,1,.128.321Z" transform="translate(1309.817 249.593)" fill="#f97b7e"/>
  </g>
</svg>
