<svg xmlns="http://www.w3.org/2000/svg" width="34" height="34" viewBox="0 0 34 34">
  <g id="_9021618_quotes_bold_icon" data-name="9021618_quotes_bold_icon" transform="translate(33 33) rotate(180)">
    <rect id="Rectangle_1651" data-name="Rectangle 1651" width="34" height="34" transform="translate(-1 -1)" fill="none"/>
    <path id="Path_626" data-name="Path 626" d="M41.821,74.338H33.034A1.034,1.034,0,0,1,32,73.3v-8.27A1.034,1.034,0,0,1,33.034,64h7.753a1.034,1.034,0,0,1,1.034,1.034V76.405a5.169,5.169,0,0,1-5.169,5.169" transform="translate(-27.946 -55.811)" fill="none" stroke="#fff" stroke-linecap="round" stroke-linejoin="round" stroke-width="3"/>
    <path id="Path_627" data-name="Path 627" d="M157.821,74.338h-8.787A1.034,1.034,0,0,1,148,73.3v-8.27A1.034,1.034,0,0,1,149.034,64h7.753a1.034,1.034,0,0,1,1.034,1.034V76.405a5.169,5.169,0,0,1-5.169,5.169" transform="translate(-128.956 -55.811)" fill="none" stroke="#fff" stroke-linecap="round" stroke-linejoin="round" stroke-width="3"/>
  </g>
</svg>
