<svg xmlns="http://www.w3.org/2000/svg" width="24.383" height="24.5" viewBox="0 0 24.383 24.5">
  <g id="_843786_whatsapp_icon" data-name="843786_whatsapp_icon" transform="translate(-4.112 -3.489)">
    <path id="Path_644" data-name="Path 644" d="M24.942,7.05A12.143,12.143,0,0,0,5.834,21.7L4.112,27.989,10.548,26.3a12.13,12.13,0,0,0,5.8,1.478h.005A12.146,12.146,0,0,0,24.942,7.05ZM16.354,25.728h0a10.076,10.076,0,0,1-5.136-1.407l-.368-.219-3.819,1,1.019-3.724L7.806,21a10.09,10.09,0,1,1,8.548,4.729Z" fill="#fff" fill-rule="evenodd"/>
    <path id="Path_645" data-name="Path 645" d="M28.14,24.895c-.3-.152-1.795-.886-2.073-.987s-.48-.152-.682.152-.784.987-.961,1.189-.354.228-.657.076a8.285,8.285,0,0,1-2.439-1.506,9.143,9.143,0,0,1-1.688-2.1c-.177-.3-.019-.468.133-.619.136-.136.3-.354.455-.531a2.071,2.071,0,0,0,.3-.506.558.558,0,0,0-.025-.531c-.076-.152-.682-1.645-.935-2.252-.246-.591-.5-.511-.683-.521s-.379-.011-.581-.011a1.114,1.114,0,0,0-.809.38,3.4,3.4,0,0,0-1.062,2.531,5.9,5.9,0,0,0,1.239,3.138,13.522,13.522,0,0,0,5.182,4.58,17.418,17.418,0,0,0,1.729.639,4.157,4.157,0,0,0,1.911.12,3.124,3.124,0,0,0,2.048-1.442,2.535,2.535,0,0,0,.177-1.443C28.645,25.122,28.443,25.046,28.14,24.895Z" transform="translate(-6.251 -6.724)" fill="#fff" fill-rule="evenodd"/>
  </g>
</svg>
