<svg xmlns="http://www.w3.org/2000/svg" width="54" height="54" viewBox="0 0 54 54">
  <g id="Group_4148" data-name="Group 4148" transform="translate(-382 -771)">
    <circle id="Ellipse_82" data-name="Ellipse 82" cx="27" cy="27" r="27" transform="translate(382 771)" fill="#309afc"/>
    <g id="_8140878_billing_cheque_draft_invoice_icon" data-name="8140878_billing_cheque_draft_invoice_icon" transform="translate(394.166 784.404)">
      <path id="Path_693" data-name="Path 693" d="M23.77,3.89H5.817A3.767,3.767,0,0,0,2.05,7.657v.16a3.783,3.783,0,0,0,3.767,3.767h.1v8.993A2.661,2.661,0,0,0,8.574,23.3H21.029a2.661,2.661,0,0,0,2.661-2.645v-9.1h0a3.783,3.783,0,0,0,3.927-3.735v-.16A3.767,3.767,0,0,0,23.77,3.89ZM21.029,22.276H8.574a1.715,1.715,0,0,1-1.7-1.7V8.411h7.646v10.5a.433.433,0,0,0,.866,0V8.411h3.206v5.915a.433.433,0,0,0,.866,0V8.411h3.206V20.577a1.715,1.715,0,0,1-1.635,1.7ZM26.575,7.85a2.821,2.821,0,0,1-2.805,2.773h0V8.411h.994a.481.481,0,0,0,.481-.481.465.465,0,0,0-.481-.481H4.919a.481.481,0,0,0-.481.481.5.5,0,0,0,.481.481h.994v2.244h-.1A2.821,2.821,0,0,1,3.012,7.818v-.16A2.805,2.805,0,0,1,5.817,4.852H23.77a2.805,2.805,0,0,1,2.805,2.805Z" transform="translate(0 0)" fill="#fff"/>
      <path id="Path_694" data-name="Path 694" d="M7.673,11.09a.433.433,0,0,0-.433.433V14.5a.433.433,0,1,0,.866,0V11.523a.433.433,0,0,0-.433-.433Z" transform="translate(3.129 4.342)" fill="#fff"/>
    </g>
  </g>
</svg>
