<svg xmlns="http://www.w3.org/2000/svg" width="54" height="56" viewBox="0 0 54 56">
  <g id="Group_4150" data-name="Group 4150" transform="translate(-609 -327)">
    <rect id="Rectangle_1635" data-name="Rectangle 1635" width="54" height="56" rx="17" transform="translate(609 327)" fill="#60c8e3"/>
    <path id="_8725685_comments_alt_icon" data-name="8725685_comments_alt_icon" d="M21.424,8.855H20.281V5.428A3.428,3.428,0,0,0,16.853,2H5.428A3.428,3.428,0,0,0,2,5.428V19.138a1.143,1.143,0,0,0,.708,1.051.96.96,0,0,0,.434.091,1.143,1.143,0,0,0,.811-.331l3.211-3.222H8.855v1.645A3.428,3.428,0,0,0,12.283,21.8H20.19L22.9,24.52a1.143,1.143,0,0,0,.811.331.96.96,0,0,0,.434-.091,1.143,1.143,0,0,0,.708-1.051V12.283A3.428,3.428,0,0,0,21.424,8.855ZM8.855,12.283v2.159H6.7a1.143,1.143,0,0,0-.811.331l-1.6,1.611V5.428A1.143,1.143,0,0,1,5.428,4.285H16.853A1.143,1.143,0,0,1,18,5.428V8.855H12.283A3.428,3.428,0,0,0,8.855,12.283Zm13.711,8.672-1.143-1.143a1.143,1.143,0,0,0-.811-.343H12.283a1.143,1.143,0,0,1-1.143-1.143V12.283a1.143,1.143,0,0,1,1.143-1.143h9.14a1.143,1.143,0,0,1,1.143,1.143Z" transform="translate(623 342)" fill="#fff"/>
  </g>
</svg>
