<svg xmlns="http://www.w3.org/2000/svg" width="21.635" height="21.693" viewBox="0 0 21.635 21.693">
  <path id="_8111403_exportarrow_export_logout_exit_close_icon" data-name="8111403_exportarrow_export_logout_exit_close_icon" d="M52.547,44.76h1.429v7.616a2.32,2.32,0,0,1-2.317,2.317H36.427a2.32,2.32,0,0,1-2.317-2.317V37.143a2.32,2.32,0,0,1,2.317-2.316h7.616v1.429H36.427a.89.89,0,0,0-.889.887V52.375a.89.89,0,0,0,.889.889H51.658a.89.89,0,0,0,.889-.889ZM49.261,33.5v1.429H52.8l-8.436,8.438,1.01,1.01,8.438-8.438v3.543h1.429V33.5Z" transform="translate(-33.86 -33.25)" fill="#fff" stroke="#fff" stroke-width="0.5"/>
</svg>
