<svg xmlns="http://www.w3.org/2000/svg" width="17.632" height="17.544" viewBox="0 0 17.632 17.544">
  <g id="_1814080_history_left_previous_rotation_icon" data-name="1814080_history_left_previous_rotation_icon" transform="translate(0)">
    <g id="Icon-Undo" transform="translate(0)">
      <path id="Fill-83" d="M-60.133-402.356a8.8,8.8,0,0,1-7.978-5.113l1.146-.529a7.585,7.585,0,0,0,6.832,4.364,7.487,7.487,0,0,0,7.494-7.494,7.487,7.487,0,0,0-7.494-7.494A7.247,7.247,0,0,0-67.01-413.6l-1.19-.441a8.534,8.534,0,0,1,8.067-5.863,8.766,8.766,0,0,1,8.772,8.772,8.8,8.8,0,0,1-8.772,8.772" transform="translate(68.993 419.9)" fill="#3e5cbc"/>
      <path id="Fill-84" d="M-64.534-411.478H-70V-416.9h1.366v4.055h4.1v1.366" transform="translate(70 418.222)" fill="#3e5cbc"/>
    </g>
  </g>
</svg>
