<svg xmlns="http://www.w3.org/2000/svg" width="54" height="54" viewBox="0 0 54 54">
  <g id="Group_4149" data-name="Group 4149" transform="translate(-381 -910)">
    <circle id="Ellipse_83" data-name="Ellipse 83" cx="27" cy="27" r="27" transform="translate(381 910)" fill="#309afc"/>
    <path id="_7787512_box_package_delivery_shipping_transport_icon" data-name="7787512_box_package_delivery_shipping_transport_icon" d="M41.857,15.817,31.9,10.529a4.777,4.777,0,0,0-4.354,0L17.6,15.817a1.468,1.468,0,0,0-.855,1.4V29.5a3.048,3.048,0,0,0,1.633,2.72l10.5,5.6a1.647,1.647,0,0,0,1.477,0L41,32.222a3.14,3.14,0,0,0,1.633-2.72V17.139a1.507,1.507,0,0,0-.778-1.323ZM28.172,33.856,19.93,29.5V19.7l8.242,4.431Zm1.555-12.441-8.009-4.277,7.309-3.888a1.647,1.647,0,0,1,1.477,0l7.309,3.888Zm9.8,8.087-8.242,4.354v-9.72l8.242-4.354Z" transform="translate(378.193 913.005)" fill="none" stroke="#fff" stroke-width="1"/>
  </g>
</svg>
